# xmcd
#
# Track frame offsets:
#	187
#	23375
#	42942
#	61850
#	86657
#	104897
#	122867
#	141595
#	162630
#
# Disc length: 2444 seconds
#
# Revision: 1
# Processed by: cddbd v1.5PL3 Copyright (c) Steve Scherf et al.
# Submitted via: CDex 1.50Beta5
#
DISCID=7f098a09
DTITLE=TABO’S PROJECT - EYES OF A CHILD
DYEAR=1992
DGENRE=Rock
TTITLE0=FEEL
TTITLE1=DANCE AWAYひとりぼっちにサヨナラ
TTITLE2=TIME’S STREET
TTITLE3=EYES OF A CHILD
TTITLE4=突然炎のように
TTITLE5=TEARS
TTITLE6=LOGICAL PRESSURE
TTITLE7=ふたりの宝島
TTITLE8=TRUTH
EXTD=
EXTT0=
EXTT1=
EXTT2=
EXTT3=
EXTT4=
EXTT5=
EXTT6=
EXTT7=
EXTT8=
PLAYORDER=
